<svg width="419" height="419" viewBox="0 0 419 419" fill="none" xmlns="http://www.w3.org/2000/svg">
<path opacity="0.3" fill-rule="evenodd" clip-rule="evenodd" d="M0 418L27.0131 390.987H0.3536V389.987H27.7203V286.487H0.3536V285.487H27.7203V209.854H0.3536V208.854H27.7203V133.22H0.3536V132.22H27.7203V28.7203H0.3536V27.7203H27.0132L6.10352e-05 0.707154L0.707153 4.68791e-05L27.7203 27.0132V0.3536H28.7203V27.7203H132.22V0.3536H133.22V27.7203H208.854V0.3536H209.854V27.7203H285.487V0.3536H286.487V27.7203H389.987V0.3536H390.987V27.0131L418 0L418.707 0.707107L391.694 27.7203H418.354V28.7203H390.987V132.22H418.354V133.22H390.987V208.854H418.354V209.854H390.987V285.487H418.354V286.487H390.987V389.987H418.354V390.987H391.694L418.707 418L418 418.707L390.987 391.694V418.354H389.987V390.987H286.487V418.354H285.487V390.987H209.854V418.354H208.854V390.987H133.22V418.354H132.22V390.987H28.7203V418.354H27.7203V391.694L0.707107 418.707L0 418ZM389.987 389.28V286.487H373.843C364.911 305.502 352.779 322.715 338.141 337.434L389.987 389.28ZM337.434 338.141L389.28 389.987H286.487V373.843C305.502 364.911 322.715 352.779 337.434 338.141ZM337.434 336.727C351.881 322.199 363.874 305.228 372.737 286.487H290.514C289.975 287.054 289.43 287.616 288.879 288.172L337.434 336.727ZM288.172 288.879L336.727 337.434C322.199 351.881 305.228 363.874 286.487 372.737V290.514C287.054 289.975 287.616 289.43 288.172 288.879ZM288.172 287.465C288.493 287.141 288.812 286.815 289.129 286.487H287.194L288.172 287.465ZM286.487 287.194L287.465 288.172C287.141 288.493 286.815 288.812 286.487 289.129V287.194ZM285.487 284.78V221.806C282.867 237.947 275.238 252.407 264.248 263.54L285.487 284.78ZM263.54 264.248L284.78 285.487H221.806C237.947 282.867 252.407 275.238 263.54 264.248ZM263.54 262.833C277.002 249.195 285.353 230.499 285.485 209.854H210.561L263.54 262.833ZM209.854 210.561L262.833 263.54C249.195 277.002 230.499 285.353 209.854 285.485V210.561ZM208.854 208.147V133.222C188.208 133.355 169.512 141.705 155.874 155.167L208.854 208.147ZM155.167 155.874L208.147 208.854H133.222C133.355 188.208 141.705 169.512 155.167 155.874ZM155.167 154.46C166.3 143.469 180.76 135.84 196.901 133.22H133.927L155.167 154.46ZM133.22 133.927L154.46 155.167C143.469 166.3 135.84 180.76 133.22 196.901V133.927ZM132.22 131.513V129.578C131.892 129.896 131.567 130.215 131.243 130.536L132.22 131.513ZM130.536 131.243L131.513 132.22H129.578C129.896 131.892 130.215 131.567 130.536 131.243ZM130.536 129.828C131.091 129.277 131.653 128.732 132.22 128.193V45.97C113.479 54.8331 96.508 66.8258 81.9806 81.2735L130.536 129.828ZM81.2735 81.9806L129.828 130.536C129.277 131.091 128.732 131.653 128.193 132.22H45.97C54.8331 113.479 66.8258 96.508 81.2735 81.9806ZM81.2735 80.5664C95.992 65.9282 113.206 53.7962 132.22 44.8642V28.7203H29.4274L81.2735 80.5664ZM28.7203 29.4274L80.5664 81.2735C65.9282 95.992 53.7962 113.206 44.8642 132.22H28.7203V29.4274ZM132.22 389.987H29.4273L81.2734 338.141C95.9919 352.779 113.205 364.911 132.22 373.843V389.987ZM28.7203 389.28L80.5663 337.434C65.9281 322.715 53.7962 305.502 44.8642 286.487H28.7203V389.28ZM132.22 372.737C113.479 363.874 96.5079 351.881 81.9805 337.434L130.535 288.879C131.091 289.43 131.653 289.975 132.22 290.514V372.737ZM81.2734 336.727L129.828 288.172C129.277 287.616 128.732 287.054 128.193 286.487H45.97C54.8331 305.228 66.8258 322.199 81.2734 336.727ZM132.22 289.129C131.892 288.812 131.567 288.493 131.243 288.172L132.22 287.194V289.129ZM130.536 287.464L131.513 286.487H129.578C129.895 286.815 130.215 287.141 130.536 287.464ZM196.901 285.487H133.927L155.167 264.247C166.3 275.238 180.76 282.867 196.901 285.487ZM133.22 284.78L154.46 263.54C143.469 252.407 135.84 237.947 133.22 221.806V284.78ZM208.854 285.485C188.208 285.353 169.512 277.002 155.874 263.54L208.854 210.561V285.485ZM155.167 262.833L208.146 209.854H133.222C133.355 230.499 141.705 249.195 155.167 262.833ZM285.485 208.854H210.561L263.54 155.874C277.002 169.512 285.353 188.208 285.485 208.854ZM209.854 208.146L262.833 155.167C249.195 141.705 230.499 133.355 209.854 133.222V208.146ZM285.487 196.901C282.867 180.76 275.238 166.3 264.247 155.167L285.487 133.927V196.901ZM263.54 154.46L284.78 133.22H221.806C237.947 135.84 252.407 143.469 263.54 154.46ZM289.129 132.22H287.194L288.172 131.243C288.493 131.567 288.812 131.892 289.129 132.22ZM286.487 131.513L287.464 130.536C287.141 130.215 286.815 129.895 286.487 129.578V131.513ZM290.514 132.22C289.975 131.653 289.43 131.091 288.879 130.535L337.434 81.9805C351.881 96.5079 363.874 113.479 372.737 132.22H290.514ZM288.172 129.828L336.727 81.2734C322.199 66.8258 305.228 54.8331 286.487 45.97V128.193C287.054 128.732 287.616 129.277 288.172 129.828ZM373.843 132.22C364.911 113.205 352.779 95.9919 338.141 81.2734L389.987 29.4273V132.22H373.843ZM337.434 80.5663L389.28 28.7203H286.487V44.8642C305.502 53.7962 322.715 65.9281 337.434 80.5663ZM44.3982 285.487H28.7203V228.528C30.8344 248.678 36.2432 267.847 44.3982 285.487ZM127.254 285.487H45.5008C34.7986 262.493 28.7941 236.871 28.7209 209.854H97.388C97.5157 239.058 108.824 265.622 127.254 285.487ZM132.22 285.487H128.623C109.984 265.729 98.5172 239.13 98.388 209.854H132.22V285.487ZM133.22 286.487V290.084C152.978 308.724 179.577 320.19 208.854 320.319V286.487H133.22ZM209.854 286.487V320.319C239.13 320.19 265.729 308.724 285.487 290.084V286.487H209.854ZM290.084 285.487H286.487V209.854H320.319C320.19 239.13 308.724 265.729 290.084 285.487ZM373.206 285.487H291.453C309.883 265.622 321.191 239.058 321.319 209.854H389.986C389.913 236.871 383.909 262.493 373.206 285.487ZM389.987 285.487H374.309C382.464 267.847 387.873 248.678 389.987 228.528V285.487ZM98.388 208.854H132.22V133.22H128.623C109.984 152.978 98.5172 179.577 98.388 208.854ZM286.487 208.854H320.319C320.19 179.577 308.724 152.978 290.084 133.22H286.487V208.854ZM321.319 208.854H389.986C389.913 181.837 383.909 156.214 373.206 133.22H291.453C309.883 153.085 321.191 179.649 321.319 208.854ZM28.7209 208.854H97.388C97.5157 179.649 108.824 153.085 127.254 133.22H45.5008C34.7986 156.214 28.7941 181.837 28.7209 208.854ZM374.309 133.22H389.987V190.179C387.873 170.029 382.464 150.86 374.309 133.22ZM285.487 132.22V128.623C265.729 109.984 239.13 98.5172 209.854 98.388V132.22H285.487ZM208.854 132.22V98.388C179.577 98.5172 152.978 109.984 133.22 128.623V132.22H208.854ZM28.7203 133.22H44.3982C36.2432 150.86 30.8344 170.029 28.7203 190.18V133.22ZM133.22 44.3982V28.7203H190.18C170.029 30.8344 150.86 36.2432 133.22 44.3982ZM285.487 44.3982C267.847 36.2432 248.678 30.8344 228.528 28.7203H285.487V44.3982ZM133.22 389.987H190.179C170.029 387.873 150.86 382.464 133.22 374.309V389.987ZM228.528 389.987H285.487V374.309C267.847 382.464 248.678 387.873 228.528 389.987ZM133.22 373.206V291.453C153.085 309.883 179.649 321.191 208.854 321.319V389.986C181.837 389.913 156.214 383.909 133.22 373.206ZM133.22 45.5008V127.254C153.085 108.824 179.649 97.5157 208.854 97.388V28.7209C181.837 28.7941 156.214 34.7986 133.22 45.5008ZM209.854 389.986C236.871 389.913 262.493 383.909 285.487 373.206V291.453C265.622 309.883 239.058 321.191 209.854 321.319V389.986ZM209.854 97.388C239.058 97.5157 265.622 108.824 285.487 127.254V45.5008C262.493 34.7986 236.871 28.7941 209.854 28.7209V97.388Z" fill="currentColor"/>
</svg>
