<svg viewBox="0 0 167 199" fill="none" xmlns="http://www.w3.org/2000/svg"><path d="M157.334 83.6c5.523 0 10.062-4.493 9.402-9.977a83.555 83.555 0 00-23.927-49.137A83.801 83.801 0 0083.6 0a83.801 83.801 0 00-59.208 24.486A83.55 83.55 0 00.465 73.623c-.66 5.484 3.879 9.977 9.402 9.977h21.302c5.523 0 9.883-4.538 11.177-9.907a42.345 42.345 0 0111.25-20.049A42.466 42.466 0 0183.6 41.236a42.468 42.468 0 0130.004 12.408 42.346 42.346 0 0111.251 20.048c1.294 5.37 5.654 9.908 11.176 9.908h21.303zM157.334 114.95c5.523 0 10.061 4.493 9.401 9.976a83.499 83.499 0 01-5.775 22.016 83.596 83.596 0 01-18.151 27.122 83.743 83.743 0 01-27.165 18.122 83.839 83.839 0 01-64.087 0 83.737 83.737 0 01-27.165-18.122A83.592 83.592 0 016.24 146.942a83.49 83.49 0 01-5.776-22.016c-.66-5.483 3.879-9.976 9.402-9.976h21.302c5.523 0 9.883 4.538 11.177 9.907a42.33 42.33 0 0011.25 20.049 42.449 42.449 0 0013.767 9.183 42.49 42.49 0 0032.475 0 42.448 42.448 0 0013.766-9.183 42.372 42.372 0 0011.251-20.049c1.293-5.369 5.654-9.907 11.176-9.907h21.303z" fill="currentColor"/></svg>